<svg width="62" height="78" viewBox="0 0 62 78" fill="none" xmlns="http://www.w3.org/2000/svg">
    <path d="M14.574 1.31095C15.2867 0.467117 16.5486 0.360865 17.3924 1.07362L61.0236 37.9278L56.5432 43.2321L11.3841 5.08736L14.574 1.31095Z" fill="black"/>
    <path d="M15.4841 0.0169737C16.5887 0.0207669 17.481 0.919267 17.4772 2.02383L17.3143 49.483L10.371 49.4592L10.534 1.99999C10.5378 0.895423 11.4363 0.00307288 12.5408 0.00686607L15.4841 0.0169737Z" fill="black"/>
    <path d="M17.2622 49.4735L16.2622 58.4735L13.7622 65.9735L7.38684 77.2977L2.76217 77.9735L0.861173 74.9259L7.38684 63.4735L9.26217 56.4735L10.5291 48L17.2622 49.4735Z" fill="black"/>
</svg>
