<svg width="45" height="78" viewBox="0 0 45 78" fill="none" xmlns="http://www.w3.org/2000/svg">
    <path d="M14.5342 1.33807C15.2193 0.471641 16.4771 0.32466 17.3435 1.00977L45.0094 22.8863L40.7028 28.3326L11.4681 5.2156L14.5342 1.33807Z" fill="black"/>
    <path d="M15.455 0.0169737C16.5595 0.0207669 17.4519 0.919267 17.4481 2.02383L17.2851 49.483L10.3418 49.4592L10.5048 1.99999C10.5086 0.895423 11.4071 0.00307288 12.5117 0.00686607L15.455 0.0169737Z" fill="black"/>
    <path d="M17.233 49.4735L16.233 58.4735L13.733 65.9735L7.35769 77.2977L2.73302 77.9735L0.832028 74.9259L7.35769 63.4735L9.23302 56.4735L10.5 48L17.233 49.4735Z" fill="black"/>
</svg>
