<svg width="24" height="24" viewBox="0 0 24 24" fill="none" xmlns="http://www.w3.org/2000/svg">
    <path d="M3.5502 12.0001L10.9002 19.3501C11.1502 19.6001 11.2712 19.8918 11.2632 20.2251C11.2552 20.5584 11.1259 20.8501 10.8752 21.1001C10.6245 21.3501 10.3329 21.4751 10.0002 21.4751C9.66753 21.4751 9.37586 21.3501 9.1252 21.1001L1.4252 13.4251C1.2252 13.2251 1.0752 13.0001 0.975195 12.7501C0.875195 12.5001 0.825195 12.2501 0.825195 12.0001C0.825195 11.7501 0.875195 11.5001 0.975195 11.2501C1.0752 11.0001 1.2252 10.7751 1.4252 10.5751L9.1252 2.87509C9.3752 2.62509 9.6712 2.50409 10.0132 2.51209C10.3552 2.52009 10.6509 2.64942 10.9002 2.90009C11.1495 3.15076 11.2745 3.44242 11.2752 3.77509C11.2759 4.10776 11.1509 4.39942 10.9002 4.65009L3.5502 12.0001Z" fill="black"/>
</svg>
