<svg width="18" height="17" viewBox="0 0 18 17" fill="none" xmlns="http://www.w3.org/2000/svg">
    <path d="M2.52735 15.1402H3.8296L11.8524 7.11877L10.5501 5.81674L2.52735 13.8382V15.1402ZM15.8289 5.77024L11.8757 1.86414L13.1779 0.562107C13.5345 0.205598 13.9726 0.0273438 14.4923 0.0273438C15.0113 0.0273438 15.4491 0.205598 15.8057 0.562107L17.1079 1.86414C17.4645 2.22065 17.6505 2.65094 17.666 3.15501C17.6815 3.65847 17.511 4.08845 17.1544 4.44496L15.8289 5.77024ZM1.59717 17.0003C1.33362 17.0003 1.11286 16.911 0.934884 16.7324C0.75629 16.5545 0.666992 16.3338 0.666992 16.0703V13.4429C0.666992 13.3189 0.690247 13.199 0.736756 13.083C0.783265 12.9665 0.853028 12.8617 0.946046 12.7687L10.5269 3.18942L14.4802 7.14202L4.89931 16.7213C4.80629 16.8143 4.7018 16.884 4.58584 16.9305C4.46926 16.977 4.34895 17.0003 4.22493 17.0003H1.59717ZM11.2013 6.46776L10.5501 5.81674L11.8524 7.11877L11.2013 6.46776Z" fill="#1D405B"/>
</svg>
