<svg width="20" height="20" viewBox="0 0 20 20" fill="none" xmlns="http://www.w3.org/2000/svg">
    <path d="M17 1H3C1.9 1 1 1.9 1 3V17C1 18.101 1.9 19 3 19H10V12H8V9.525H10V7.475C10 5.311 11.212 3.791 13.766 3.791L15.569 3.793V6.398H14.372C13.378 6.398 13 7.144 13 7.836V9.526H15.568L15 12H13V19H17C18.1 19 19 18.101 19 17V3C19 1.9 18.1 1 17 1Z" fill="#1877F2"/>
    <path d="M9.54491 7C9.54491 5.93913 9.92344 4.92172 10.5972 4.17157C11.271 3.42143 12.1849 3 13.1377 3L15.8323 3V7H14.0359C13.7977 7 13.5692 7.10536 13.4008 7.29289C13.2324 7.48043 13.1377 7.73478 13.1377 8V9H16L15.1018 13H13.1377V19H9.54491V13H7V9H9.54491V7Z" fill="white"/>
</svg>
